<svg xmlns="http://www.w3.org/2000/svg" width="198" height="38.611"><defs><filter id="a" x="0" y="0" width="36.195" height="38.611" filterUnits="userSpaceOnUse"><feOffset dy="3"/><feGaussianBlur stdDeviation="3" result="blur"/><feFlood flood-opacity=".161"/><feComposite operator="in" in2="blur"/><feComposite in="SourceGraphic"/></filter></defs><g filter="url(#a)"><path data-name="前面オブジェクトで型抜き 1" d="M19.186 26.611a10.082 10.082 0 01-5.25-1.472h6.438a10.321 10.321 0 006.437-2 10.146 10.146 0 01-7.625 3.472zm-6.677-2.523a10.385 10.385 0 010-15.564zm7.669-2.278h-3.662V10.948h3.661a5.873 5.873 0 014.134 1.458 5.3 5.3 0 011.556 3.975 5.3 5.3 0 01-1.556 3.975 5.873 5.873 0 01-4.134 1.454zM27.2 9.939a10.082 10.082 0 00-6.82-2.319H13.7a10.1 10.1 0 0110.012-.548A10.31 10.31 0 0127.2 9.938z" fill="#fff"/></g><path d="M32.559 7.603h8.188a11.4 11.4 0 015.047 1.071 8.03 8.03 0 013.414 3.038 8.6 8.6 0 011.212 4.607 8.6 8.6 0 01-1.212 4.611 8.03 8.03 0 01-3.414 3.038 11.4 11.4 0 01-5.047 1.071h-8.188zm7.99 13.5a5 5 0 003.575-1.27 4.591 4.591 0 001.348-3.511 4.591 4.591 0 00-1.348-3.511 5 5 0 00-3.575-1.27h-3.092v9.563zm12.567-13.5h4.9v17.432h-4.9zm20.113 8.342h4.329v7.222a11.256 11.256 0 01-3.414 1.644 13.5 13.5 0 01-3.859.573 10.266 10.266 0 01-4.9-1.158 8.6 8.6 0 01-3.414-3.225 8.94 8.94 0 01-1.237-4.682 8.94 8.94 0 011.237-4.682 8.564 8.564 0 013.439-3.225 10.518 10.518 0 014.969-1.158 11.012 11.012 0 014.354.822 8.4 8.4 0 013.216 2.366l-3.117 2.839a5.479 5.479 0 00-4.206-1.942 4.856 4.856 0 00-3.587 1.357 4.89 4.89 0 00-1.36 3.623 5.292 5.292 0 00.618 2.578 4.45 4.45 0 001.732 1.768 5.051 5.051 0 002.548.635 6.223 6.223 0 002.652-.57zm13.655 9.439a15.909 15.909 0 01-4.082-.523 10.006 10.006 0 01-3.216-1.395l1.608-3.636a10.373 10.373 0 002.7 1.245 10.2 10.2 0 003.018.473q2.82 0 2.82-1.42a1.175 1.175 0 00-.8-1.108 14.712 14.712 0 00-2.585-.76 24.546 24.546 0 01-3.265-.909 5.5 5.5 0 01-2.251-1.556 4.224 4.224 0 01-.94-2.889 5.025 5.025 0 01.858-2.876A5.8 5.8 0 0183.334 8a10.578 10.578 0 014.218-.747 14.784 14.784 0 013.364.386 10.262 10.262 0 012.919 1.133l-1.508 3.658a10.03 10.03 0 00-4.8-1.345 4 4 0 00-2.127.436 1.308 1.308 0 00-.668 1.133 1.123 1.123 0 00.792 1.046 14.241 14.241 0 002.548.722 23.746 23.746 0 013.278.909 5.659 5.659 0 012.251 1.544 4.141 4.141 0 01.952 2.876 4.926 4.926 0 01-.866 2.839 5.908 5.908 0 01-2.6 2.03 10.445 10.445 0 01-4.203.764zm25.678-.349l-.049-9.239-4.453 7.521h-2.181l-4.428-7.272v8.99h-4.523V7.603h4.032l6.086 10.061 5.933-10.061h4.032l.049 17.433zm8.089-17.433h4.9v17.433h-4.9zm8.51 0h4.9V21.13h8.263v3.91h-13.162zm29.118 13.623v3.81h-13.9V7.603h13.581v3.81h-8.733v2.939h7.694v3.686h-7.694v3.188zm6.202-7.274h3.169v11.2h-3.169zm16.167 0v11.2h-2.607l-4.948-5.966v5.971h-3.106v-11.2h2.61l4.944 5.966v-5.971zm7.908 11.429a6.631 6.631 0 01-3.162-.745 5.566 5.566 0 01-2.2-2.073 5.717 5.717 0 01-.8-3.009 5.717 5.717 0 01.8-3.009 5.566 5.566 0 012.2-2.073 6.631 6.631 0 013.161-.744 6.786 6.786 0 012.769.544 5.328 5.328 0 012.05 1.564l-2.017 1.83a3.318 3.318 0 00-2.641-1.313 3.26 3.26 0 00-1.625.4 2.777 2.777 0 00-1.1 1.129 3.473 3.473 0 00-.392 1.673 3.473 3.473 0 00.392 1.673 2.777 2.777 0 001.1 1.129 3.26 3.26 0 001.625.4 3.318 3.318 0 002.641-1.313l2.017 1.825a5.328 5.328 0 01-2.049 1.567 6.786 6.786 0 01-2.769.545zm7.619-.08a1.791 1.791 0 01-1.3-.512 1.729 1.729 0 01-.528-1.3 1.71 1.71 0 01.52-1.3 1.815 1.815 0 011.3-.5 1.808 1.808 0 011.313.5 1.724 1.724 0 01.512 1.3 1.743 1.743 0 01-.52 1.3 1.784 1.784 0 01-1.297.512z" fill="#fff"/></svg>